<svg width="144" height="144" viewBox="0 0 144 144" fill="none" xmlns="http://www.w3.org/2000/svg">
<rect x="3" y="3" width="138" height="138" stroke="white" stroke-width="6"/>
<path d="M16 126.51V55H46.1223C46.8311 55 47.7424 55.0331 48.8561 55.0993C49.9699 55.1324 50.9993 55.2317 51.9443 55.3973C56.1631 56.0263 59.6394 57.4002 62.3732 59.519C65.1407 61.6379 67.1826 64.3195 68.4989 67.5639C69.8489 70.7753 70.5239 74.3508 70.5239 78.2905C70.5239 84.1172 69.022 89.1329 66.0182 93.3374C63.0145 97.5088 58.4075 100.091 52.1974 101.084L46.983 101.531H28.2008V126.51H16ZM57.8675 126.51L43.4898 97.4095L55.8931 94.7279L71.6883 126.51H57.8675ZM28.2008 90.3578H45.6161C46.2911 90.3578 47.0505 90.3247 47.8942 90.2585C48.738 90.1923 49.5143 90.0599 50.223 89.8612C52.248 89.3646 53.8343 88.4873 54.9818 87.2293C56.1631 85.9712 56.99 84.5476 57.4625 82.9585C57.9688 81.3694 58.2219 79.8134 58.2219 78.2905C58.2219 76.7676 57.9688 75.2116 57.4625 73.6224C56.99 72.0002 56.1631 70.5601 54.9818 69.302C53.8343 68.044 52.248 67.1667 50.223 66.6701C49.5143 66.4714 48.738 66.3556 47.8942 66.3225C47.0505 66.2562 46.2911 66.2231 45.6161 66.2231H28.2008V90.3578Z" fill="white"/>
<path d="M98.1308 128C94.182 128 90.8407 127.272 88.1069 125.815C85.3731 124.325 83.2975 122.355 81.8799 119.905C80.4962 117.456 79.8043 114.757 79.8043 111.811C79.8043 109.229 80.243 106.911 81.1205 104.859C81.9981 102.773 83.3481 100.985 85.1706 99.4952C86.9931 97.9723 89.3557 96.7308 92.2582 95.7708C94.452 95.0755 97.017 94.4465 99.9533 93.8837C102.923 93.3209 106.13 92.8077 109.572 92.3442C113.049 91.8476 116.677 91.3179 120.457 90.7551L116.103 93.1884C116.137 89.4805 115.293 86.7492 113.572 84.9946C111.85 83.2399 108.948 82.3626 104.864 82.3626C102.4 82.3626 100.021 82.9254 97.7258 84.051C95.4308 85.1766 93.8276 87.1134 92.9163 89.8612L81.7787 86.4347C83.1287 81.8991 85.6937 78.2574 89.4738 75.5095C93.2876 72.7617 98.4177 71.3878 104.864 71.3878C109.724 71.3878 113.994 72.1658 117.672 73.7218C121.385 75.2778 124.136 77.827 125.924 81.3694C126.903 83.2565 127.494 85.1932 127.696 87.1796C127.899 89.1329 128 91.2683 128 93.5857V126.51H117.318V114.89L119.09 116.777C116.626 120.65 113.74 123.498 110.433 125.318C107.159 127.106 103.058 128 98.1308 128ZM100.561 118.465C103.328 118.465 105.691 117.985 107.648 117.025C109.606 116.065 111.158 114.89 112.306 113.499C113.487 112.109 114.28 110.801 114.685 109.576C115.327 108.053 115.681 106.315 115.749 104.362C115.85 102.376 115.9 100.77 115.9 99.5449L119.647 100.637C115.968 101.2 112.812 101.697 110.18 102.127C107.547 102.558 105.286 102.971 103.396 103.369C101.506 103.733 99.8352 104.147 98.3839 104.61C96.9664 105.107 95.7683 105.686 94.7895 106.348C93.8107 107.01 93.0513 107.772 92.5113 108.633C92.0051 109.493 91.752 110.503 91.752 111.662C91.752 112.986 92.0895 114.161 92.7645 115.188C93.4395 116.181 94.4183 116.976 95.7008 117.571C97.017 118.167 98.6371 118.465 100.561 118.465Z" fill="white"/>
</svg>
